<?xml version="1.0" encoding="utf-8"?>
<!-- Generator: Adobe Illustrator 26.0.0, SVG Export Plug-In . SVG Version: 6.00 Build 0)  -->
<svg version="1.1" id="Capa_1" xmlns="http://www.w3.org/2000/svg" xmlns:xlink="http://www.w3.org/1999/xlink" x="0px" y="0px"
	 viewBox="0 0 112.15 69.52" style="enable-background:new 0 0 112.15 69.52;" xml:space="preserve">
<g>
	<path d="M70.23,69.41c-8.83,0-17.67,0.33-26.47-0.16c-3.6-0.2-7.61-1.41-10.57-3.43c-9.06-6.19-17.76-12.93-26.5-19.59
		c-8.96-6.82-8.9-16.07,0.05-22.85c8.63-6.53,17.12-13.26,26.06-19.33c3.23-2.19,7.59-3.73,11.47-3.81
		C62.08-0.15,79.9,0.03,97.72,0.11c9.26,0.04,14.3,5.03,14.36,14.19c0.09,13.65,0.1,27.31,0.01,40.97
		c-0.06,9.17-5.12,14.09-14.38,14.14c-9.16,0.06-18.32,0.01-27.48,0.01C70.23,69.42,70.23,69.42,70.23,69.41z M70.15,33.61
		c0.12,0.84,0.24,1.69,0.36,2.53c-3,2.34-6.1,4.57-8.97,7.06c-2.24,1.94-5.15,4.35-2.25,7.46c3.35,3.58,5.63-0.1,7.73-2.19
		c2.67-2.65,5.06-5.58,8.58-9.53c3.7,4.31,6.44,7.65,9.35,10.83c1.77,1.93,3.96,3.54,6.39,1.05c2.36-2.42,0.96-4.64-1.05-6.43
		c-3.21-2.85-6.56-5.56-9.85-8.33c-0.07-0.88-0.14-1.75-0.22-2.63c3.22-2.58,6.51-5.08,9.64-7.77c2.11-1.81,4.06-4.12,1.6-6.79
		c-2.83-3.07-5.2-0.6-7.09,1.48c-2.78,3.06-5.27,6.39-8.92,10.89c-4.13-4.85-6.87-8.18-9.75-11.39c-1.76-1.96-4.29-3.78-6.2-0.99
		c-0.91,1.32-0.28,4.85,0.94,6.25C63.28,28.3,66.88,30.82,70.15,33.61z"/>
</g>
</svg>
